<svg width="27" height="15" viewBox="0 0 27 15" fill="none" xmlns="http://www.w3.org/2000/svg">
<path d="M0.348389 9.67292L5.32708 14.6516C5.7916 15.1161 6.54197 15.1161 7.00649 14.6516L7.84024 13.8179L2.0278 7.9816C1.80527 7.75857 1.50316 7.63323 1.1881 7.63323C0.873036 7.63323 0.570919 7.75857 0.348389 7.9816C-0.11613 8.44612 -0.11613 9.2084 0.348389 9.67292Z" fill="#2D9E9F"/>
<path d="M24.6701 0.346914L12.9023 12.1147L8.75736 7.9817C8.53483 7.75867 8.23271 7.63333 7.91765 7.63333C7.60259 7.63333 7.30047 7.75867 7.07794 7.9817C6.61342 8.44622 6.61342 9.19659 7.07794 9.66111L12.0566 14.6398C12.5211 15.1043 13.2715 15.1043 13.736 14.6398L26.3495 2.03824C26.814 1.57372 26.814 0.823344 26.3495 0.358825H26.3376C25.885 -0.117604 25.1346 -0.117604 24.6701 0.346914Z" fill="#63BC51"/>
<path d="M19.3639 0.701972C19.1413 0.47894 18.8392 0.3536 18.5242 0.3536C18.2091 0.3536 17.907 0.47894 17.6845 0.701972L10.9668 7.41963L12.6462 9.09904L19.3639 2.36947C19.8165 1.91687 19.8165 1.15458 19.3639 0.701972Z" fill="#2D9E9F"/>
</svg>
