<svg width="24" height="18" viewBox="0 0 24 18" fill="none" xmlns="http://www.w3.org/2000/svg">
<path fill-rule="evenodd" clip-rule="evenodd" d="M3.33034 2H20.6828C21.4103 2 22 2.58972 22 3.31718C22 3.31864 22 3.32011 22 3.32157L21.9605 15.1483C21.9581 15.874 21.3691 16.4611 20.6433 16.4611H3.31718C2.58972 16.4611 2 15.8713 2 15.1439C2 15.1434 2 15.1429 2 15.1424L2.01316 3.31571C2.01397 2.58883 2.60345 2 3.33034 2Z" stroke="#5060AB" stroke-width="2.5" stroke-linejoin="round"/>
<path d="M21.7419 2.62241C21.7419 2.62241 18.5203 5.38027 12.0771 10.896M12.0771 10.896C5.60178 5.38027 2.36411 2.62241 2.36411 2.62241L12.0771 10.896Z" stroke="#5060AB" stroke-width="2.5" stroke-linecap="round" stroke-linejoin="round"/>
</svg>
