<svg width="14" height="14" viewBox="0 0 14 14" fill="none" xmlns="http://www.w3.org/2000/svg">
<path fill-rule="evenodd" clip-rule="evenodd" d="M1.75 11.5C1.75 11.9125 2.0875 12.25 2.5 12.25H11.5C11.9125 12.25 12.25 11.9125 12.25 11.5V7.75C12.25 7.3375 12.5875 7 13 7C13.4125 7 13.75 7.3375 13.75 7.75V12.25C13.75 13.075 13.075 13.75 12.25 13.75H1.75C0.925 13.75 0.25 13.075 0.25 12.25V1.75C0.25 0.925 0.9175 0.25 1.75 0.25H6.25C6.6625 0.25 7 0.5875 7 1C7 1.4125 6.6625 1.75 6.25 1.75H2.5C2.0875 1.75 1.75 2.0875 1.75 2.5V11.5ZM9.25 1.75C8.8375 1.75 8.5 1.4125 8.5 1C8.5 0.5875 8.8375 0.25 9.25 0.25H13C13.4125 0.25 13.75 0.5875 13.75 1V4.75C13.75 5.1625 13.4125 5.5 13 5.5C12.5875 5.5 12.25 5.1625 12.25 4.75V2.8075L5.4025 9.655C5.11 9.9475 4.6375 9.9475 4.345 9.655C4.0525 9.3625 4.0525 8.89 4.345 8.5975L11.1925 1.75H9.25Z" fill="#5B678C"/>
</svg>
