<svg width="23" height="29" viewBox="0 0 23 29" fill="none" xmlns="http://www.w3.org/2000/svg">
<path d="M8.89823 2L5.44709 2.9203C4.34027 3.55564 3.58092 4.13461 3.10577 4.66117C2.4342 5.46189 2.05642 6.43877 2.0038 7.62672C1.96258 9.09005 2.25641 10.7923 2.91405 12.7299C3.48553 14.5028 4.27243 16.2864 5.27726 18.0793C6.3298 19.9066 7.47432 21.5121 8.7161 22.9116C10.0661 24.4457 11.3868 25.5547 12.6579 26.257C13.7404 26.8973 14.8117 27.112 15.931 26.9464C16.4933 26.8339 17.1951 26.5756 17.4179 26.2952C17.5137 26.2952 18.115 26.1749 19.1955 25.3384C19.6646 24.9634 20.191 24.6692 20.8066 22.1609L14.3707 16.1272C13.6159 16.7915 13.0367 17.303 12.5422 17.6001C11.7778 17.0746 11.124 16.2839 10.5436 15.2486C10.0377 14.3597 9.74002 13.5026 9.64548 12.2276L12.2065 10.6467L8.89823 2Z" stroke="#5060AB" stroke-width="2.5"/>
</svg>
