<svg width="24" height="24" viewBox="0 0 24 24" fill="none" xmlns="http://www.w3.org/2000/svg">
<path d="M7.59371 19.2427C7.74614 19.2427 7.89857 19.2046 8.05099 19.1284L11.614 17.4707C11.7156 17.4199 11.8426 17.3945 11.995 17.3945C12.1602 17.3945 12.2935 17.4199 12.3952 17.4707L15.92 19.1284C16.39 19.3189 16.7647 19.2618 17.0442 18.9569C17.222 18.7537 17.2919 18.4869 17.2538 18.1567L16.7774 14.2698C16.7647 14.1554 16.7838 14.0284 16.8346 13.8887C16.8854 13.7236 16.9489 13.6029 17.0251 13.5267L19.6926 10.6877C19.9721 10.3702 20.061 10.0526 19.9594 9.73507C19.8323 9.3921 19.5719 9.18887 19.1782 9.12536L15.3294 8.38228C15.2405 8.36957 15.1293 8.31559 14.9959 8.22032C14.8626 8.12506 14.7641 8.03296 14.7006 7.94405L12.9096 4.66687C12.8461 4.53985 12.7572 4.41282 12.6429 4.2858C12.4523 4.09527 12.2364 4 11.995 4C11.6267 4 11.3345 4.20959 11.1186 4.62876L9.27041 7.94405C9.2323 8.03296 9.14656 8.12506 9.01319 8.22032C8.87981 8.31559 8.75597 8.36957 8.64165 8.38228L4.81192 9.12536C4.39275 9.18887 4.1387 9.3921 4.04978 9.73507C3.93546 10.0653 4.01803 10.3829 4.29748 10.6877L6.984 13.5267C7.04752 13.6156 7.10468 13.7363 7.15548 13.8887C7.219 14.0411 7.23805 14.1682 7.21265 14.2698L6.71726 18.1567C6.69185 18.4869 6.76807 18.7537 6.9459 18.9569C7.11103 19.1474 7.32697 19.2427 7.59371 19.2427Z" fill="#EFDD38"/>
</svg>
